<?xml version="1.0" standalone="no"?>
<!DOCTYPE svg PUBLIC "-//W3C//DTD SVG 20010904//EN"
 "http://www.w3.org/TR/2001/REC-SVG-20010904/DTD/svg10.dtd">
<svg version="1.0" xmlns="http://www.w3.org/2000/svg"
 width="1200.000000pt" height="1200.000000pt" viewBox="0 0 1200.000000 1200.000000"
 preserveAspectRatio="xMidYMid meet">
<metadata>
Created by potrace 1.16, written by Peter Selinger 2001-2019
</metadata>
<g transform="translate(0.000000,1200.000000) scale(0.100000,-0.100000)"
fill="#000000" stroke="none">
<path d="M5850 11977 c-76 -31 -200 -117 -245 -169 -44 -52 -93 -145 -111
-213 -11 -39 -14 -179 -14 -641 0 -325 -3 -606 -6 -623 -4 -17 -20 -46 -35
-63 -27 -28 -33 -30 -82 -26 -44 4 -87 25 -277 133 -124 70 -251 140 -282 156
-128 65 -286 63 -423 -5 -91 -45 -154 -112 -204 -216 -34 -71 -36 -82 -40
-193 -3 -103 0 -126 19 -180 27 -74 75 -150 121 -194 19 -17 252 -156 519
-307 535 -304 562 -324 621 -451 45 -96 50 -148 47 -483 -3 -344 -6 -357 -74
-389 -29 -14 -42 -15 -77 -6 -23 7 -177 85 -342 174 -325 175 -366 190 -432
156 -61 -32 -63 -48 -63 -436 0 -375 -2 -394 -50 -436 -15 -14 -35 -20 -64
-19 -35 1 -90 28 -332 165 -299 169 -358 212 -415 300 -69 108 -69 106 -69
749 0 654 1 647 -81 769 -48 72 -82 102 -182 159 -135 76 -270 91 -399 42
-103 -39 -202 -143 -255 -270 l-28 -65 -5 -350 c-4 -304 -7 -354 -22 -381 -21
-38 -66 -59 -112 -51 -19 3 -267 140 -552 305 -286 165 -540 307 -565 315
-133 45 -285 28 -428 -49 -112 -60 -182 -128 -229 -223 -36 -73 -37 -77 -41
-214 -3 -110 0 -153 14 -203 21 -79 76 -166 137 -219 27 -23 264 -158 564
-320 284 -154 530 -293 545 -308 38 -38 46 -71 25 -113 -19 -41 -49 -60 -345
-225 -251 -139 -306 -184 -359 -291 -40 -81 -51 -134 -52 -233 0 -231 123
-397 344 -460 89 -26 252 -18 327 17 30 14 263 147 517 297 484 284 519 301
632 301 107 0 161 -23 445 -187 149 -87 285 -172 303 -191 24 -26 32 -42 32
-71 0 -70 -26 -92 -330 -280 -203 -126 -291 -186 -307 -210 -40 -59 -24 -137
34 -179 16 -11 163 -97 328 -192 165 -95 331 -191 369 -213 l69 -39 -74 -48
c-41 -26 -207 -124 -370 -217 -308 -177 -347 -193 -459 -193 -104 0 -148 21
-625 302 -253 149 -485 283 -515 297 -50 24 -66 26 -186 26 l-131 0 -88 -45
c-151 -77 -241 -178 -280 -314 -13 -46 -16 -85 -13 -172 4 -106 7 -117 42
-188 63 -128 94 -151 414 -314 296 -151 332 -176 332 -234 0 -23 -10 -40 -38
-66 -20 -19 -280 -167 -577 -329 -331 -180 -555 -309 -579 -331 -57 -55 -111
-143 -131 -215 -13 -49 -16 -94 -14 -198 4 -133 5 -136 42 -211 52 -106 108
-154 245 -211 148 -63 184 -70 310 -65 84 4 120 10 167 30 33 13 285 152 560
308 554 314 562 317 623 265 17 -14 36 -43 42 -63 6 -21 10 -164 10 -337 0
-331 4 -358 61 -466 116 -218 355 -295 574 -184 140 71 222 157 276 292 l24
58 5 595 c5 593 5 595 28 652 28 69 98 166 141 197 17 13 156 94 308 182 233
134 284 159 318 159 22 0 51 -7 64 -16 48 -34 51 -58 51 -436 0 -211 4 -368
10 -390 16 -56 54 -81 116 -76 47 4 79 22 360 203 170 109 325 203 345 209 48
13 94 -6 117 -48 15 -27 17 -72 20 -338 4 -338 -2 -389 -49 -486 -63 -128 -86
-145 -609 -441 -261 -148 -495 -286 -518 -306 -56 -48 -106 -124 -132 -199
-28 -83 -28 -249 0 -331 71 -205 266 -331 484 -311 93 9 144 31 396 173 278
156 292 163 335 163 48 0 80 -23 99 -71 14 -34 16 -115 16 -637 0 -373 4 -614
11 -642 30 -129 114 -241 246 -326 108 -69 153 -84 263 -84 104 0 156 16 258
81 128 81 205 176 242 297 19 61 20 94 20 670 0 587 1 607 20 647 33 67 95 83
173 44 23 -12 148 -82 278 -155 259 -146 306 -164 435 -164 189 0 325 83 407
249 32 65 32 67 32 216 l0 150 -37 77 c-66 138 -83 150 -625 457 -523 296
-549 314 -608 432 -51 100 -55 129 -55 469 0 288 2 319 19 357 11 23 29 47 42
53 51 28 93 9 388 -170 298 -181 334 -200 376 -200 35 0 82 25 97 53 10 16 14
114 18 372 6 391 7 400 76 433 32 15 39 15 77 1 24 -8 177 -91 341 -184 208
-118 313 -184 345 -216 44 -43 100 -135 124 -202 7 -22 13 -227 17 -632 l5
-600 33 -67 c120 -246 405 -342 652 -221 98 48 165 116 216 218 l39 79 5 337
c5 323 6 339 26 366 32 44 70 58 119 45 22 -6 258 -134 523 -286 524 -298 543
-306 689 -306 89 0 156 18 276 74 116 54 179 113 229 213 32 66 33 72 36 213
3 128 1 153 -18 209 -25 76 -73 152 -126 203 -22 20 -259 168 -529 328 -269
160 -500 301 -512 312 -63 59 -46 138 41 192 28 18 143 84 256 146 112 63 220
128 239 145 88 77 151 223 151 349 0 309 -256 551 -536 506 -81 -13 -64 -5
-617 -314 -249 -139 -477 -261 -507 -271 -65 -22 -202 -25 -270 -6 -54 15
-625 313 -657 342 -35 34 -48 74 -33 108 6 16 21 38 33 49 12 11 141 89 287
172 146 84 280 164 299 178 65 49 76 131 25 191 -14 17 -149 107 -299 201
-173 107 -284 183 -300 204 -36 48 -34 105 5 150 47 53 588 394 663 418 84 27
203 21 279 -14 29 -14 265 -150 523 -303 293 -174 493 -286 530 -298 47 -15
82 -18 165 -15 93 3 113 7 171 35 117 55 196 145 239 274 19 54 21 82 18 179
-3 109 -5 119 -40 193 -60 124 -103 160 -393 321 -137 76 -261 148 -274 160
-13 11 -30 36 -37 53 -12 28 -12 38 -1 65 8 18 23 41 33 50 11 9 253 150 539
312 460 262 526 303 575 354 58 61 103 140 119 213 16 66 13 227 -4 294 -34
130 -123 238 -258 314 -124 70 -247 88 -372 56 -38 -10 -242 -115 -588 -302
-292 -158 -547 -291 -568 -297 -50 -13 -101 10 -126 56 -16 29 -19 71 -23 388
l-5 355 -31 65 c-17 36 -50 86 -72 111 -94 106 -288 165 -464 140 -186 -26
-306 -114 -372 -275 -20 -50 -21 -70 -26 -717 l-5 -665 -37 -75 c-62 -124
-101 -154 -448 -343 -338 -184 -359 -191 -418 -141 -48 40 -52 78 -52 475 0
397 -2 415 -59 444 -37 20 -72 20 -114 2 -19 -7 -161 -91 -318 -186 -237 -144
-292 -174 -331 -178 -40 -4 -50 -1 -71 21 -42 41 -47 83 -47 399 0 329 5 370
56 469 61 117 84 133 634 444 541 307 572 328 629 435 35 66 61 157 61 215 0
100 -55 235 -130 318 -58 65 -175 141 -242 158 -70 17 -202 15 -258 -5 -25 -8
-172 -85 -325 -171 -236 -130 -287 -155 -322 -155 -52 0 -98 36 -113 88 -6 23
-10 257 -10 633 0 565 -1 600 -20 660 -36 119 -100 200 -220 282 -116 79 -167
97 -280 97 -76 0 -106 -5 -150 -23z"/>
</g>
</svg>
